<svg width="35" height="22" viewBox="0 0 35 22" fill="none" xmlns="http://www.w3.org/2000/svg">
<path d="M10.5177 12.573C15.8206 12.573 20.462 14.509 20.462 18.766C20.462 20.999 19.5453 22 17.6191 22H3.41626C1.47845 22 0.573364 20.999 0.573364 18.766C0.573364 14.509 5.21482 12.573 10.5177 12.573ZM20.7057 13.904C20.6129 13.211 21.1234 12.584 21.8545 12.496C22.5971 12.408 23.6646 12.353 24.4421 12.408C29.7217 12.826 34.3864 14.509 34.3864 18.766C34.3864 20.999 33.4697 22 31.5435 22H23.7807C23.0496 22 22.4578 21.439 22.4578 20.746L22.5159 18.931C22.5391 17.974 22.3882 17.028 22.0633 16.137C21.9125 15.719 21.6804 15.345 21.4367 14.971L20.7173 13.904H20.7057ZM24.4421 0C27.5518 0 30.0814 2.387 30.0814 5.346C30.0814 8.305 27.5635 10.692 24.4421 10.692C21.3207 10.692 18.8027 8.305 18.8027 5.346C18.8027 2.387 21.3323 0 24.4421 0ZM10.5177 0C13.6275 0 16.1571 2.387 16.1571 5.346C16.1571 8.305 13.6391 10.692 10.5177 10.692C7.39631 10.692 4.87832 8.294 4.87832 5.346C4.87832 2.398 7.40791 0 10.5177 0Z" fill="white"/>
</svg>
