<svg width="27" height="23" viewBox="0 0 27 23" fill="none" xmlns="http://www.w3.org/2000/svg">
<path d="M26.2479 4.88531C25.8331 3.97632 25.2349 3.1526 24.487 2.46027C23.7385 1.76587 22.8559 1.21404 21.8874 0.834792C20.8831 0.439971 19.8059 0.237878 18.7184 0.240247C17.1927 0.240247 15.7041 0.635634 14.4105 1.38248C14.101 1.56113 13.807 1.75736 13.5285 1.97116C13.25 1.75736 12.956 1.56113 12.6465 1.38248C11.3529 0.635634 9.86436 0.240247 8.33865 0.240247C7.24002 0.240247 6.17543 0.439405 5.16964 0.834792C4.1979 1.21553 3.32209 1.76322 2.57007 2.46027C1.82113 3.15182 1.22286 3.97573 0.809165 4.88531C0.378997 5.83131 0.159271 6.83588 0.159271 7.86975C0.159271 8.84503 0.369713 9.86133 0.787502 10.8952C1.13721 11.7592 1.63855 12.6554 2.27916 13.5604C3.29424 14.9926 4.68996 16.4863 6.42301 18.0004C9.29492 20.5104 12.139 22.2443 12.2597 22.3145L12.9931 22.7597C13.3181 22.9559 13.7359 22.9559 14.0608 22.7597L14.7943 22.3145C14.915 22.2413 17.7559 20.5104 20.6309 18.0004C22.364 16.4863 23.7597 14.9926 24.7748 13.5604C25.4154 12.6554 25.9198 11.7592 26.2664 10.8952C26.6842 9.86133 26.8947 8.84503 26.8947 7.86975C26.8978 6.83588 26.678 5.83131 26.2479 4.88531Z" fill="white"/>
</svg>
